#!OML:ASF E:\acrobat2\Project_11_07_03\Capture day 1\Session 1\Acrobat.ASF
:FULLY-SPECIFIED
:DEGREES
498
root 8.13912 18.1599 3.92897 -171.386 -13.9707 -182.475
lowerback 5.23855 8.08547 2.17662
upperback 2.52714 10.2814 -8.91606
thorax 1.82694 5.10996 -10.9147
lowerneck 4.70839 22.7461 5.02097
upperneck 2.50534 30.6255 -9.91254
head 2.56959 15.3278 -3.11405
rclavicle -5.84427e-014 -3.81667e-014
rhumerus -44.1792 4.8625 -69.3843
rradius 75.7899
rwrist -13.6697
rhand 16.7422 -39.3738
rfingers 7.12502
rthumb 41.489 -64.1327
lclavicle -5.84427e-014 -3.81667e-014
lhumerus -35.8682 -39.6185 87.0353
lradius 67.424
lwrist 20.3009
lhand -26.5788 -22.2466
lfingers 7.12502
lthumb -0.0133185 7.73314
rfemur -33.4379 -14.96 22.6897
rtibia 56.7375
rfoot 16.0837 -1.48756
rtoes 4.28211
lfemur -15.5456 -5.34628 -18.7302
ltibia 19.4058
lfoot 4.0227 -17.3936
ltoes 16.5473
499
root 8.14479 18.1644 4.0669 -171.415 -14.1219 -182.675
lowerback 5.32532 8.0842 2.19983
upperback 2.4987 10.2684 -9.00743
thorax 1.76965 5.10022 -11.0454
lowerneck 4.32406 22.6784 4.27074
upperneck 2.89751 30.4695 -8.70679
head 2.40594 15.2266 -2.66976
rclavicle 7.71285e-014 -5.88403e-014
rhumerus -44.9247 3.8707 -68.9913
rradius 77.0883
rwrist -13.866
rhand 16.393 -38.8645
rfingers 7.12502
rthumb 41.1613 -63.7294
lclavicle 7.71285e-014 -5.88403e-014
lhumerus -36.1842 -39.772 86.9282
lradius 66.8962
lwrist 20.2635
lhand -26.8491 -21.2733
lfingers 7.12502
lthumb -0.274318 8.70626
rfemur -33.9396 -15.1006 22.4807
rtibia 56.8325
rfoot 16.2807 -1.62898
rtoes 4.33181
lfemur -14.956 -7.30101 -18.7037
ltibia 20.0001
lfoot 2.15039 -16.4394
ltoes 14.2359
500
root 8.14983 18.1659 4.204 -171.426 -14.2781 -182.958
lowerback 5.37075 8.00898 1.98955
upperback 2.50181 10.146 -9.01928
thorax 1.6851 5.02633 -10.9495
lowerneck 4.88109 22.6633 4.67916
upperneck 2.56264 30.4716 -9.27617
head 2.37389 15.2518 -2.94886
rclavicle 7.63333e-014 -7.4743e-014
rhumerus -45.5402 3.09124 -68.5637
rradius 78.3266
rwrist -13.7999
rhand 16.0833 -38.0143
rfingers 7.12502
rthumb 40.8703 -62.9718
lclavicle 7.63333e-014 -7.4743e-014
lhumerus -36.4301 -39.5056 86.9373
lradius 66.2332
lwrist 20.074
lhand -26.956 -20.5347
lfingers 7.12502
lthumb -0.377588 9.44469
rfemur -34.4237 -15.3054 22.1769
rtibia 56.909
rfoot 16.4236 -1.63178
rtoes 4.31845
lfemur -14.3537 -9.17098 -18.8417
ltibia 20.6261
lfoot 0.536794 -15.2584
ltoes 13.5338
501
root 8.15623 18.1662 4.33926 -171.547 -14.4524 -182.999
lowerback 5.40633 7.90354 1.96456
upperback 2.5774 10.0084 -8.93479
thorax 1.69486 4.95698 -10.8436
lowerneck 5.31036 22.6482 4.71386
upperneck 1.98461 30.4385 -9.65944
head 2.18147 15.2636 -3.15382
rclavicle -5.88403e-014 2.38542e-014
rhumerus -45.7588 2.58896 -68.0861
rradius 79.3236
rwrist -13.9309
rhand 16.2102 -37.609
rfingers 7.12502
rthumb 40.9895 -62.5287
lclavicle -5.88403e-014 2.38542e-014
lhumerus -36.496 -39.208 86.8241
lradius 65.5319
lwrist 19.9111
lhand -26.8312 -20.1292
lfingers 7.12502
lthumb -0.257054 9.8504
rfemur -34.7766 -15.4675 22.1205
rtibia 56.9212
rfoot 16.5187 -1.52263
rtoes 3.91087
lfemur -13.7182 -10.7656 -18.8023
ltibia 21.3057
lfoot -0.854055 -14.0601
ltoes 13.7034
502
root 8.16209 18.1712 4.47575 -171.721 -14.5588 -182.904
lowerback 5.37316 7.76242 2.03215
upperback 2.72113 9.84055 -8.77326
thorax 1.81041 4.88084 -10.6894
lowerneck 4.77156 22.8519 4.77766
upperneck 2.82518 30.7508 -9.51957
head 2.56641 15.3797 -2.96618
rclavicle 9.74045e-014 3.97569e-014
rhumerus -45.6957 2.30211 -67.5246
rradius 80.3501
rwrist -14.2447
rhand 16.7673 -37.5776
rfingers 7.12502
rthumb 41.5125 -62.3289
lclavicle 9.74045e-014 3.97569e-014
lhumerus -36.4992 -38.861 86.6367
lradius 64.8918
lwrist 19.886
lhand -26.9107 -19.3496
lfingers 7.12502
lthumb -0.333873 10.6299
rfemur -35.0513 -15.5547 22.1914
rtibia 56.8454
rfoot 16.6119 -1.39389
rtoes 3.27263
lfemur -13.1318 -11.6014 -18.7155
ltibia 22.1082
lfoot -1.77337 -13.1271
ltoes 13.8733
